<svg id="Layer_1" data-name="Layer 1" xmlns="http://www.w3.org/2000/svg" viewBox="0 0 150.71 167.91"><defs><style>.cls-1,.cls-3{font-size:7.95px;font-family:SignPainter-HouseScriptSemibold, SignPainter;font-weight:600;}.cls-1,.cls-3,.cls-4{fill:#323232;}.cls-1{letter-spacing:-0.01em;}.cls-2{letter-spacing:0.02em;}.cls-3{letter-spacing:-0.05em;}.cls-4{font-size:19.48px;font-family:basictitlefont, basic title font;letter-spacing:0.03em;}.cls-5{fill:none;stroke:#323232;stroke-miterlimit:10;stroke-width:2px;}</style></defs><text class="cls-1" transform="translate(62.72 59.71) scale(1 1.49)">E<tspan class="cls-2" x="2.81" y="0">st. 1779</tspan></text><text class="cls-3" transform="translate(51.79 116.08) scale(1 1.49)">T<tspan class="cls-2" x="2.77" y="0">he friendly city</tspan></text><text class="cls-4" transform="translate(16.59 95.27) scale(1 1.49)">Harrisonburg</text><polyline class="cls-5" points="13.79 106.88 13.79 117.62 73.14 151.89 132.5 117.62 132.5 106.68"/><polyline class="cls-5" points="119.03 118.35 124.71 115.22 124.71 106.88"/><line class="cls-5" x1="103.75" y1="126.77" x2="111.17" y2="122.68"/><line class="cls-5" x1="87.62" y1="135.66" x2="96.39" y2="130.82"/><polyline class="cls-5" points="65.09 139.25 73.14 143.64 81.08 139.26"/><polyline class="cls-5" points="49.89 130.82 55.11 133.7 59.52 136.13"/><polyline class="cls-5" points="34.39 122.28 36.73 123.57 42.54 126.77"/><polyline class="cls-5" points="21.57 106.88 21.57 115.22 27.26 118.35"/><polyline class="cls-5" points="132.61 63.49 132.61 52.75 73.26 18.48 13.9 52.75 13.9 63.29"/><rect class="cls-5" x="9.94" y="65.95" width="126.21" height="38.06"/><polyline class="cls-5" points="27.37 52.02 21.69 55.16 21.69 63.49"/><line class="cls-5" x1="42.65" y1="43.6" x2="35.23" y2="47.69"/><line class="cls-5" x1="58.78" y1="34.71" x2="50" y2="39.55"/><polyline class="cls-5" points="81.31 31.13 73.26 26.73 65.32 31.11"/><polyline class="cls-5" points="96.51 39.55 91.29 36.67 86.88 34.24"/><polyline class="cls-5" points="112 48.09 109.66 46.8 103.86 43.6"/><polyline class="cls-5" points="124.83 63.49 124.83 55.16 119.14 52.02"/></svg>