<?xml version="1.0" encoding="utf-8"?>
<!-- Generator: Adobe Illustrator 26.0.1, SVG Export Plug-In . SVG Version: 6.00 Build 0)  -->
<svg version="1.1" id="Layer_1" xmlns="http://www.w3.org/2000/svg" xmlns:xlink="http://www.w3.org/1999/xlink" x="0px" y="0px"
	 viewBox="0 0 563 167" style="enable-background:new 0 0 563 167;" xml:space="preserve">
<style type="text/css">
	.st0{fill:#231F20;}
	.st1{font-family:'SarahScript-Regular';}
	.st2{font-size:100px;}
	.st3{letter-spacing:-7;}
	.st4{letter-spacing:-2;}
	.st5{letter-spacing:-3;}
	.st6{letter-spacing:-1;}
	.st7{letter-spacing:-5;}
	.st8{font-family:'RocGrotesk-Regular';}
	.st9{font-size:30px;}
	.st10{fill:#333232;}
	.st11{font-family:'SignPainter-HouseScript';}
	.st12{font-size:14.62px;}
	.st13{font-family:'basictitlefont';}
	.st14{font-size:35.83px;}
	.st15{fill:none;stroke:#333232;stroke-width:2;stroke-miterlimit:10;}
</style>
<text transform="matrix(1 0 0 1 173.81 106.25)" class="st0 st1 st2 st3">H</text>
<text transform="matrix(1 0 0 1 242.51 106.25)" class="st0 st1 st2 st4">a</text>
<text transform="matrix(1 0 0 1 274.51 106.25)" class="st0 st1 st2 st5">r</text>
<text transform="matrix(1 0 0 1 299.71 106.25)" class="st0 st1 st2 st6">r</text>
<text transform="matrix(1 0 0 1 326.91 106.25)" class="st0 st1 st2 st7">i</text>
<text transform="matrix(1 0 0 1 343.01 106.25)" class="st0 st1 st2">s</text>
<text transform="matrix(1 0 0 1 367.71 106.25)" class="st0 st1 st2 st4">o</text>
<text transform="matrix(1 0 0 1 393.51 106.25)" class="st0 st1 st2">n</text>
<text transform="matrix(1 0 0 1 431.11 106.25)" class="st0 st1 st2 st6">b</text>
<text transform="matrix(1 0 0 1 461.11 106.25)" class="st0 st1 st2 st5">u</text>
<text transform="matrix(1 0 0 1 496.31 106.25)" class="st0 st1 st2 st7">r</text>
<text transform="matrix(1 0 0 1 520.11 106.25)" class="st0 st1 st2">g</text>
<text transform="matrix(1 0 0 1 241.1 136.52)" class="st0 st8 st9">T</text>
<text transform="matrix(1 0 0 1 258.05 136.52)" class="st0 st8 st9">he Friendly City</text>
<g>
	<text transform="matrix(0.67 0 0 1 66.1499 52.0498)" class="st10 st11 st12">E</text>
	<text transform="matrix(0.67 0 0 1 69.6201 52.0498)" class="st10 st11 st12">st. 1779</text>
</g>
<g>
	<text transform="matrix(0.67 0 0 1 52.6602 121.6401)" class="st10 st11 st12">T</text>
	<text transform="matrix(0.67 0 0 1 56.0801 121.6401)" class="st10 st11 st12">he friendly city</text>
</g>
<text transform="matrix(0.67 0 0 1 9.21 95.9502)" class="st10 st13 st14">Harrisonburg</text>
<polyline class="st15" points="5.8,110.3 5.8,123.5 79,165.8 152.3,123.5 152.3,110 "/>
<polyline class="st15" points="135.7,124.4 142.7,120.6 142.7,110.3 "/>
<line class="st15" x1="116.8" y1="134.8" x2="126" y2="129.8"/>
<line class="st15" x1="96.9" y1="145.8" x2="107.7" y2="139.8"/>
<polyline class="st15" points="69.1,150.2 79,155.7 88.8,150.2 "/>
<polyline class="st15" points="50.3,139.8 56.8,143.4 62.2,146.4 "/>
<polyline class="st15" points="31.2,129.3 34.1,130.9 41.2,134.8 "/>
<polyline class="st15" points="15.4,110.3 15.4,120.6 22.4,124.4 "/>
<polyline class="st15" points="152.4,56.7 152.4,43.5 79.2,1.2 5.9,43.5 5.9,56.5 "/>
<rect x="1" y="59.8" class="st15" width="155.8" height="47"/>
<polyline class="st15" points="22.5,42.6 15.5,46.4 15.5,56.7 "/>
<line class="st15" x1="41.4" y1="32.2" x2="32.2" y2="37.2"/>
<line class="st15" x1="61.3" y1="21.2" x2="50.5" y2="27.2"/>
<polyline class="st15" points="89.1,16.8 79.2,11.3 69.4,16.8 "/>
<polyline class="st15" points="107.9,27.2 101.4,23.6 96,20.6 "/>
<polyline class="st15" points="127,37.7 124.1,36.1 116.9,32.2 "/>
<polyline class="st15" points="142.8,56.7 142.8,46.4 135.8,42.6 "/>
</svg>
