<svg id="Layer_1" data-name="Layer 1" xmlns="http://www.w3.org/2000/svg" viewBox="0 0 128.21 135.72"><defs><style>.cls-1,.cls-3{font-size:7.95px;font-family:SignPainter-HouseScriptSemibold, SignPainter;font-weight:600;}.cls-1,.cls-3,.cls-4,.cls-6{fill:#fff;}.cls-1{letter-spacing:-0.01em;}.cls-2{letter-spacing:0.02em;}.cls-3{letter-spacing:-0.05em;}.cls-4{font-size:19.48px;font-family:basictitlefont, basic title font;letter-spacing:0.03em;}.cls-5{fill:none;}.cls-5,.cls-6{stroke:#fff;stroke-miterlimit:10;stroke-width:2px;}</style></defs><text class="cls-1" transform="translate(53.78 42.38) scale(1 1.49)">E<tspan class="cls-2" x="2.81" y="0">st. 1779</tspan></text><text class="cls-3" transform="translate(42.85 98.75) scale(1 1.49)">T<tspan class="cls-2" x="2.77" y="0">he friendly city</tspan></text><text class="cls-4" transform="translate(7.65 77.94) scale(1 1.49)">Harrisonburg</text><polyline class="cls-5" points="4.85 89.56 4.85 100.29 64.2 134.56 123.56 100.29 123.56 89.36"/><polyline class="cls-5" points="110.08 101.02 115.77 97.89 115.77 89.56"/><path class="cls-5" d="M118.92,124.16" transform="translate(-8.84 -23.14)"/><line class="cls-5" x1="94.81" y1="109.44" x2="102.23" y2="105.35"/><path class="cls-5" d="M103.64,132.59" transform="translate(-8.84 -23.14)"/><path class="cls-5" d="M96.29,136.64" transform="translate(-8.84 -23.14)"/><line class="cls-5" x1="78.68" y1="118.33" x2="87.45" y2="113.5"/><polyline class="cls-5" points="56.15 121.92 64.2 126.31 72.14 121.94"/><path class="cls-5" d="M83.14,121.28" transform="translate(-8.84 -23.14)"/><path class="cls-5" d="M59.42,142" transform="translate(-8.84 -23.14)"/><polyline class="cls-5" points="40.95 113.5 46.17 116.37 50.58 118.81"/><path class="cls-5" d="M49.79,136.64" transform="translate(-8.84 -23.14)"/><path class="cls-5" d="M42.43,132.59" transform="translate(-8.84 -23.14)"/><polyline class="cls-5" points="25.45 104.95 27.79 106.25 33.6 109.44"/><path class="cls-5" d="M34.29,128.1" transform="translate(-8.84 -23.14)"/><path class="cls-5" d="M27.16,124.16" transform="translate(-8.84 -23.14)"/><polyline class="cls-5" points="12.63 89.56 12.63 97.89 18.32 101.02"/><polyline class="cls-5" points="123.67 46.16 123.67 35.42 64.32 1.16 4.96 35.42 4.96 45.96"/><path class="cls-6" d="M132.51,72.68" transform="translate(-8.84 -23.14)"/><path class="cls-5" d="M132.51,111.78" transform="translate(-8.84 -23.14)"/><path class="cls-5" d="M14.37,140" transform="translate(-8.84 -23.14)"/><path class="cls-5" d="M73.15,161.37" transform="translate(-8.84 -23.14)"/><path class="cls-5" d="M133.08,140" transform="translate(-8.84 -23.14)"/><path class="cls-5" d="M13.8,111.78" transform="translate(-8.84 -23.14)"/><rect class="cls-5" x="1" y="48.62" width="126.21" height="38.06"/><polyline class="cls-5" points="18.43 34.69 12.74 37.83 12.74 46.16"/><path class="cls-5" d="M27.27,57.84" transform="translate(-8.84 -23.14)"/><line class="cls-5" x1="33.71" y1="26.27" x2="26.29" y2="30.36"/><path class="cls-5" d="M42.55,49.41" transform="translate(-8.84 -23.14)"/><path class="cls-5" d="M49.9,45.36" transform="translate(-8.84 -23.14)"/><line class="cls-5" x1="49.84" y1="17.38" x2="41.06" y2="22.22"/><polyline class="cls-5" points="72.37 13.8 64.32 9.4 56.38 13.78"/><path class="cls-5" d="M80.41,36.54" transform="translate(-8.84 -23.14)"/><path class="cls-5" d="M86.78,40.05" transform="translate(-8.84 -23.14)"/><polyline class="cls-5" points="87.57 22.22 82.35 19.34 77.94 16.91"/><path class="cls-5" d="M96.41,45.36" transform="translate(-8.84 -23.14)"/><path class="cls-5" d="M103.76,49.41" transform="translate(-8.84 -23.14)"/><polyline class="cls-5" points="103.06 30.76 100.72 29.47 94.92 26.27"/><path class="cls-5" d="M111.9,53.9" transform="translate(-8.84 -23.14)"/><path class="cls-5" d="M119,57.84" transform="translate(-8.84 -23.14)"/><polyline class="cls-5" points="115.89 46.16 115.89 37.83 110.2 34.69"/><path class="cls-5" d="M124.73,111.78" transform="translate(-8.84 -23.14)"/><path class="cls-5" d="M22.15,143.64" transform="translate(-8.84 -23.14)"/><path class="cls-5" d="M73.72,115.21" transform="translate(-8.84 -23.14)"/><path class="cls-5" d="M125.3,143.64" transform="translate(-8.84 -23.14)"/><path class="cls-5" d="M21.58,111.78" transform="translate(-8.84 -23.14)"/></svg>