<svg id="Layer_1" data-name="Layer 1" xmlns="http://www.w3.org/2000/svg" viewBox="0 0 569.66 94.64"><defs><style>.cls-1{font-size:20px;fill:#231f20;font-family:RocGrotesk-Regular, Roc Grotesk;}.cls-2{letter-spacing:-0.02em;}.cls-3{letter-spacing:-0.02em;}.cls-4{letter-spacing:-0.03em;}.cls-5{letter-spacing:-0.03em;}.cls-6{letter-spacing:-0.03em;}.cls-7{letter-spacing:-0.05em;}.cls-8{letter-spacing:-0.02em;}.cls-9{letter-spacing:-0.03em;}.cls-10{letter-spacing:-0.05em;}.cls-11{letter-spacing:-0.03em;}.cls-12{letter-spacing:-0.06em;}</style></defs><text class="cls-1" transform="translate(17.86 17.1)">“D<tspan class="cls-2" x="21.82" y="0">o</tspan><tspan x="33.46" y="0">wn</tspan><tspan class="cls-3" x="62.12" y="0">t</tspan><tspan class="cls-2" x="69.6" y="0">o</tspan><tspan x="81.24" y="0">wn has the cu</tspan><tspan class="cls-3" x="215" y="0">t</tspan><tspan x="222.48" y="0">est little lo</tspan><tspan class="cls-4" x="319.29" y="0">c</tspan><tspan x="330.11" y="0">ations. I l</tspan><tspan class="cls-5" x="413.69" y="0">o</tspan><tspan class="cls-6" x="425.17" y="0">v</tspan><tspan x="436.29" y="0">ed visiting </tspan><tspan x="-5.11" y="24">the Cat Ca</tspan><tspan class="cls-7" x="96.15" y="24">f</tspan><tspan x="103.07" y="24">e and the quilt museum, </tspan><tspan class="cls-8" x="337.88" y="24">m</tspan><tspan x="355.66" y="24">y </tspan><tspan class="cls-9" x="371.54" y="24">f</tspan><tspan x="378.7" y="24">amily had such a </tspan><tspan x="7.47" y="48">fun time visiting. </tspan><tspan class="cls-10" x="170.67" y="48">W</tspan><tspan x="189.57" y="48">e also l</tspan><tspan class="cls-11" x="253.8" y="48">o</tspan><tspan class="cls-6" x="265.28" y="48">v</tspan><tspan x="276.4" y="48">ed </tspan><tspan class="cls-3" x="304.98" y="48">w</tspan><tspan x="320.56" y="48">alking through JMU</tspan><tspan class="cls-12" x="512.04" y="48">’</tspan><tspan x="515.5" y="48">s </tspan><tspan class="cls-4" x="172.92" y="72">c</tspan><tspan x="183.74" y="72">ampus, so pretty!”</tspan></text></svg>