<?xml version="1.0" encoding="utf-8"?>
<!-- Generator: Adobe Illustrator 26.0.1, SVG Export Plug-In . SVG Version: 6.00 Build 0)  -->
<svg version="1.1" id="Layer_1" xmlns="http://www.w3.org/2000/svg" xmlns:xlink="http://www.w3.org/1999/xlink" x="0px" y="0px"
	 viewBox="0 0 569.7 95.1" style="enable-background:new 0 0 569.7 95.1;" xml:space="preserve">
<style type="text/css">
	.st0{fill:#231F20;}
	.st1{font-family:'RocGrotesk-Regular';}
	.st2{font-size:20px;}
	.st3{letter-spacing:-1;}
</style>
<text transform="matrix(1 0 0 1 9.6289 27.162)" class="st0 st1 st2">“</text>
<text transform="matrix(1 0 0 1 17.3689 27.162)" class="st0 st1 st2">So ma</text>
<text transform="matrix(1 0 0 1 76.6489 27.162)" class="st0 st1 st2">n</text>
<text transform="matrix(1 0 0 1 88.8889 27.162)" class="st0 st1 st2">y fun places </text>
<text transform="matrix(1 0 0 1 209.6089 27.162)" class="st0 st1 st2">t</text>
<text transform="matrix(1 0 0 1 217.0889 27.162)" class="st0 st1 st2">o visit around Harrisonbu</text>
<text transform="matrix(1 0 0 1 468.8989 27.162)" class="st0 st1 st2">r</text>
<text transform="matrix(1 0 0 1 479.6789 27.162)" class="st0 st1 st2">g! Def</text>
<text transform="matrix(1 0 0 1 538.1589 27.162)" class="st0 st1 st2">-</text>
<text transform="matrix(1 0 0 1 9.6289 51.162)" class="st0 st1 st2">ni</text>
<text transform="matrix(1 0 0 1 26.9289 51.162)" class="st0 st1 st2">t</text>
<text transform="matrix(1 0 0 1 34.4089 51.162)" class="st0 st1 st2">ely recommend </text>
<text transform="matrix(1 0 0 1 189.6289 51.162)" class="st0 st1 st2">g</text>
<text transform="matrix(1 0 0 1 201.1289 51.162)" class="st0 st1 st2">oing </text>
<text transform="matrix(1 0 0 1 247.0489 51.162)" class="st0 st1 st2">t</text>
<text transform="matrix(1 0 0 1 254.5289 51.162)" class="st0 st1 st2">o the </text>
<text transform="matrix(1 0 0 1 307.7289 51.162)" class="st0 st1 st2">W</text>
<text transform="matrix(1 0 0 1 327.2789 51.162)" class="st0 st1 st2">hi</text>
<text transform="matrix(1 0 0 1 344.6789 51.162)" class="st0 st1 st2">t</text>
<text transform="matrix(1 0 0 1 352.1589 51.162)" class="st0 st1 st2">e Oak L</text>
<text transform="matrix(1 0 0 1 422.5389 51.162)" class="st0 st1 st2">a</text>
<text transform="matrix(1 0 0 1 433.5589 51.162)" class="st0 st1 st2">v</text>
<text transform="matrix(1 0 0 1 444.6789 51.162)" class="st0 st1 st2">ender Farm, </text>
<text transform="matrix(1 0 0 1 9.6289 75.162)" class="st0 st1 st2">i</text>
<text transform="matrix(1 0 0 1 14.2289 75.162)" class="st0 st1 st2">t</text>
<text transform="matrix(1 0 0 1 22.1489 75.162)" class="st0 st1 st2 st3">’</text>
<text transform="matrix(1 0 0 1 25.6089 75.162)" class="st0 st1 st2">s a great ph</text>
<text transform="matrix(1 0 0 1 141.1089 75.162)" class="st0 st1 st2">o</text>
<text transform="matrix(1 0 0 1 152.8289 75.162)" class="st0 st1 st2">t</text>
<text transform="matrix(1 0 0 1 160.3089 75.162)" class="st0 st1 st2">o opportunity and </text>
<text transform="matrix(1 0 0 1 340.2689 75.162)" class="st0 st1 st2">e</text>
<text transform="matrix(1 0 0 1 350.9689 75.162)" class="st0 st1 st2">v</text>
<text transform="matrix(1 0 0 1 362.0889 75.162)" class="st0 st1 st2">en bet</text>
<text transform="matrix(1 0 0 1 422.5889 75.162)" class="st0 st1 st2">t</text>
<text transform="matrix(1 0 0 1 430.0689 75.162)" class="st0 st1 st2">er wine!”</text>
</svg>
