<svg id="Layer_1" data-name="Layer 1" xmlns="http://www.w3.org/2000/svg" viewBox="0 0 586.81 158.24"><defs><style>.cls-1{font-size:20px;fill:#231f20;font-family:RocGrotesk-Regular, Roc Grotesk;}.cls-2{letter-spacing:-0.01em;}.cls-3{letter-spacing:0em;}.cls-4{letter-spacing:-0.02em;}.cls-5{letter-spacing:-0.02em;}.cls-6{letter-spacing:-0.01em;}.cls-7{letter-spacing:-0.01em;}.cls-8{letter-spacing:-0.03em;}.cls-9{letter-spacing:-0.03em;}.cls-10{letter-spacing:-0.05em;}.cls-11{letter-spacing:-0.06em;}.cls-12{letter-spacing:-0.03em;}.cls-13{letter-spacing:-0.02em;}.cls-14{letter-spacing:-0.02em;}.cls-15{letter-spacing:0em;}.cls-16{letter-spacing:-0.03em;}.cls-17{letter-spacing:-0.02em;}.cls-18{letter-spacing:-0.03em;}.cls-19{letter-spacing:-0.03em;}.cls-20{letter-spacing:-0.03em;}</style></defs><text class="cls-1" transform="translate(27.13 38.05)">“Harrisonbu<tspan class="cls-2" x="121.6" y="0">r</tspan><tspan class="cls-3" x="132.38" y="0">g is such a quaint little </tspan><tspan class="cls-4" x="349.73" y="0">t</tspan><tspan class="cls-5" x="357.21" y="0">o</tspan><tspan x="368.85" y="0">wn with plenty </tspan><tspan class="cls-6" x="512.97" y="0">o</tspan><tspan x="524.71" y="0">f </tspan><tspan x="-7.76" y="24">places </tspan><tspan class="cls-4" x="59.26" y="24">t</tspan><tspan x="66.74" y="24">o visit. </tspan><tspan class="cls-7" x="132.76" y="24">L</tspan><tspan class="cls-8" x="143.18" y="24">o</tspan><tspan class="cls-9" x="154.66" y="24">v</tspan><tspan x="165.78" y="24">ed the </tspan><tspan class="cls-10" x="230.96" y="24">f</tspan><tspan x="237.88" y="24">ood from Billy Jac</tspan><tspan class="cls-5" x="410.53" y="24">k</tspan><tspan class="cls-11" x="422.47" y="24">’</tspan><tspan x="425.93" y="24">s and all the </tspan><tspan x="-3.04" y="48">i</tspan><tspan class="cls-4" x="1.56" y="48">t</tspan><tspan x="9.04" y="48">ems </tspan><tspan class="cls-6" x="54.18" y="48">o</tspan><tspan class="cls-10" x="65.92" y="48">ff</tspan><tspan x="80.08" y="48">ered at the sund</tspan><tspan class="cls-12" x="240.56" y="48">a</tspan><tspan x="251.56" y="48">y </tspan><tspan class="cls-13" x="267.44" y="48">F</tspan><tspan x="277.78" y="48">arme</tspan><tspan class="cls-14" x="329.88" y="48">r</tspan><tspan class="cls-11" x="340.38" y="48">’</tspan><tspan class="cls-15" x="343.84" y="48">s Mar</tspan><tspan class="cls-16" x="398.9" y="48">k</tspan><tspan x="410.54" y="48">et. So sad </tspan><tspan class="cls-17" x="508.65" y="48">w</tspan><tspan x="524.25" y="48">e </tspan><tspan x="-5.07" y="72">did</tspan><tspan class="cls-18" x="24.81" y="72">n</tspan><tspan class="cls-2" x="36.93" y="72">’</tspan><tspan x="41.33" y="72">t </tspan><tspan class="cls-8" x="53.79" y="72">g</tspan><tspan x="65.29" y="72">et </tspan><tspan class="cls-4" x="89.09" y="72">t</tspan><tspan x="96.57" y="72">o </tspan><tspan class="cls-19" x="113.17" y="72">e</tspan><tspan x="123.81" y="72">xplore all it has </tspan><tspan class="cls-4" x="273.33" y="72">t</tspan><tspan x="280.81" y="72">o </tspan><tspan class="cls-6" x="297.4" y="72">o</tspan><tspan class="cls-10" x="309.15" y="72">ff</tspan><tspan x="323.31" y="72">e</tspan><tspan class="cls-9" x="334.65" y="72">r</tspan><tspan x="345.02" y="72">, </tspan><tspan class="cls-5" x="354.7" y="72">w</tspan><tspan x="370.3" y="72">e will defini</tspan><tspan class="cls-4" x="474.32" y="72">t</tspan><tspan x="481.8" y="72">ely be </tspan><tspan x="172.76" y="96">coming </tspan><tspan class="cls-20" x="248.24" y="96">b</tspan><tspan x="260.4" y="96">ack soon!”</tspan></text></svg>